<?xml version="1.0" encoding="UTF-8"?>
<svg id="Layer_2" data-name="Layer 2" xmlns="http://www.w3.org/2000/svg" viewBox="0 0 196.82 431.15">
  <defs>
    <style>
      .cls-1 {
        fill: #da212d;
        stroke-width: 0px;
      }
    </style>
  </defs>
  <g id="Layer_1-2" data-name="Layer 1">
    <path class="cls-1" d="M.17,301.78h62.21c0,1.91-.02,3.65,0,5.39.17,10.3-.09,20.64.62,30.9,1.84,26.57,19.32,36.71,43.29,32.01,14.17-2.77,22.27-13.45,23.89-29.43,2.91-28.89-4.64-54.57-24.9-75.58-15.23-15.8-31.71-30.39-47.41-45.74-18.52-18.1-36.24-37.03-46.09-61.46-14.2-35.25-14.92-71.12-.69-106.43C21.79,24.88,42.5,9.15,70.52,3.13c19.15-4.12,38.35-4.21,57.52-.05,25.53,5.53,44.39,19.67,55.91,43.26,11.78,24.13,12.02,49.97,11.92,76.2h-62.67c0-1.83.08-3.73-.01-5.63-.53-10.77-.37-21.63-1.85-32.27-1.6-11.51-8.2-20.01-19.98-23.05-12.52-3.23-24.88-2.87-34.31,7.24-3.77,4.04-6.59,9.8-7.8,15.23-6.03,27.05,1.69,51.01,19.82,71.08,14.02,15.51,30.15,29.1,44.77,44.1,13.1,13.44,26.4,26.87,37.85,41.67,19.9,25.71,25.78,56.01,25.08,87.9-.39,17.93-2.9,35.5-10.47,51.92-12.15,26.36-32.86,42.04-61.32,47.58-21.25,4.13-42.42,3.97-63.33-2.02-29.53-8.46-47.12-28.65-55.89-57.31C-.93,347.14-.07,324.69.17,301.78Z"/>
  </g>
</svg>