<?xml version="1.0" encoding="UTF-8"?>
<svg id="Isolation_Mode" data-name="Isolation Mode" xmlns="http://www.w3.org/2000/svg" viewBox="0 0 41.14 42.63">
  <defs>
    <style>
      .cls-1 {
        fill: #fff;
        stroke-width: 0px;
      }
    </style>
  </defs>
  <path class="cls-1" d="M38.48,42.63c-.67-.2-1.16-.66-1.64-1.15-3.16-3.3-6.33-6.58-9.49-9.88-.09-.09-.15-.2-.23-.3-4.46,2.98-9.24,3.87-14.37,2.52-4.21-1.11-7.54-3.53-9.92-7.17C-1.91,19.38-.57,9.81,5.92,4.24c6.63-5.69,16.22-5.64,22.72.11,6.74,5.96,7.93,16.61,1.77,23.95,1.16,1.21,2.32,2.42,3.49,3.63,2.15,2.24,4.28,4.51,6.48,6.71,1.44,1.44.73,3.6-.98,3.96-.02,0-.05.03-.07.05h-.83ZM17.23,29.93c7.05-.03,12.74-5.75,12.7-12.76-.04-7.05-5.74-12.71-12.77-12.68-7.01.03-12.68,5.75-12.66,12.76.02,7.01,5.75,12.72,12.73,12.68Z"/>
</svg>